<svg xmlns="http://www.w3.org/2000/svg" version="1.1" xmlns:xlink="http://www.w3.org/1999/xlink" xmlns:svgjs="http://svgjs.dev/svgjs" width="1500" height="238" viewBox="0 0 1500 238"><g transform="matrix(1,0,0,1,-0.9090909090909918,1.1806278301136501)"><svg viewBox="0 0 396 63" data-background-color="#ffffff" preserveAspectRatio="xMidYMid meet" height="238" width="1500" xmlns="http://www.w3.org/2000/svg" xmlns:xlink="http://www.w3.org/1999/xlink"><g id="tight-bounds" transform="matrix(1,0,0,1,0.2400000000000091,-0.22917623114557273)"><svg viewBox="0 0 395.52 63.45835246229115" height="63.45835246229115" width="395.52"><g><svg viewBox="0 0 555.26253460627 89.08789853901149" height="63.45835246229115" width="395.52"><g><rect width="7.994068287521742" height="89.08789853901149" x="130.82158598492165" y="0" fill="#0080ff" opacity="1" stroke-width="0" stroke="transparent" fill-opacity="1" class="rect-yte-0" data-fill-palette-color="primary" rx="1%" id="yte-0" data-palette-color="#0080ff"></rect></g><g transform="matrix(1,0,0,1,159.74253460626994,0.22161168790798058)"><svg viewBox="0 0 395.52000000000004 88.64467516319553" height="88.64467516319553" width="395.52000000000004"><g id="textblocktransform"><svg viewBox="0 0 395.52000000000004 88.64467516319553" height="88.64467516319553" width="395.52000000000004" id="textblock"><g><svg viewBox="0 0 395.52000000000004 88.64467516319553" height="88.64467516319553" width="395.52000000000004"><g transform="matrix(1,0,0,1,0,0)"><svg width="395.52000000000004" viewBox="1.05 -35.55 160.83999999999997 36.05" height="88.64467516319553" data-palette-color="#0080ff"><path d="M1.05-33.9L1.05-35 27.05-35 27.55-25.1 26.65-25.1Q24.55-30.15 22.25-32.02 19.95-33.9 15.5-33.9L15.5-33.9 13.75-33.9 13.75-18.45 15.45-18.45Q17.8-18.45 19.4-20.23 21-22 21.65-25L21.65-25 22.4-25 22.4-10.2 21.55-10.2Q20.65-13.95 19.13-15.55 17.6-17.15 14.95-17.15L14.95-17.15 13.75-17.15 13.75-1.1 15.65-1.1Q20.25-1.1 23.48-3.85 26.7-6.6 27.9-10.9L27.9-10.9 28.9-10.9 28.5 0 1.05 0 1.05-1.1 4-1.1 4-33.9 1.05-33.9ZM66.9-18.1L66.9-18.1Q66.9-7.8 61.1-3.75L61.1-3.75Q55.75 0 46.4 0L46.4 0 32.25 0 32.25-0.95 35.55-0.95 35.55-34.05 32.25-34.05 32.25-35 47.7-35Q57.3-35 62.1-31.08 66.9-27.15 66.9-18.1ZM45.3-34.05L45.3-0.95 47.2-0.95Q52.25-0.95 54.42-4.53 56.6-8.1 56.6-16.5L56.6-16.5 56.6-19.4Q56.6-30.65 52.3-32.95L52.3-32.95Q50.25-34.05 46.5-34.05L46.5-34.05 45.3-34.05ZM84.7-0.55L84.7-0.55Q87.2-0.55 89.12-1.9 91.05-3.25 91.05-5.98 91.05-8.7 88.97-10.15 86.9-11.6 83.07-12.68 79.25-13.75 77.52-14.55 75.8-15.35 74.25-16.65L74.25-16.65Q71.15-19.25 71.15-24.7L71.15-24.7Q71.15-29.15 74.32-32.35 77.5-35.55 83-35.55L83-35.55Q85.65-35.55 88.52-34.77 91.4-34 92.1-34 92.8-34 93.35-35L93.35-35 93.9-35 94.25-24.9 93.45-24.9Q91.05-29.25 88.42-31.88 85.8-34.5 82.72-34.5 79.65-34.5 77.95-33.08 76.25-31.65 76.25-29.28 76.25-26.9 78.27-25.63 80.3-24.35 83.25-23.55 86.2-22.75 87.12-22.45 88.05-22.15 89.42-21.63 90.8-21.1 91.67-20.53 92.55-19.95 93.52-19.07 94.5-18.2 95.05-17.15L95.05-17.15Q96.4-14.75 96.4-11.45L96.4-11.45Q96.4-6.05 93.02-2.78 89.65 0.5 84.15 0.5L84.15 0.5Q81.3 0.5 77.62-0.25 73.95-1 73.55-1L73.55-1Q72.85-1 72.2 0.5L72.2 0.5 71.5 0.5 71-11.4 71.85-11.4Q74.05-7.05 77.47-3.8 80.9-0.55 84.7-0.55ZM99.49-33.9L99.49-35 125.49-35 125.99-25.1 125.09-25.1Q122.99-30.15 120.69-32.02 118.39-33.9 113.94-33.9L113.94-33.9 112.19-33.9 112.19-18.45 113.89-18.45Q116.24-18.45 117.84-20.23 119.44-22 120.09-25L120.09-25 120.84-25 120.84-10.2 119.99-10.2Q119.09-13.95 117.57-15.55 116.04-17.15 113.39-17.15L113.39-17.15 112.19-17.15 112.19-1.1 114.09-1.1Q118.69-1.1 121.92-3.85 125.14-6.6 126.34-10.9L126.34-10.9 127.34-10.9 126.94 0 99.49 0 99.49-1.1 102.44-1.1 102.44-33.9 99.49-33.9ZM161.89-34.05L159.14-34.05 159.14 0 152.14 0 134.99-32.35 134.99-0.95 137.74-0.95 137.74 0 130.89 0 130.89-0.95 133.64-0.95 133.64-34.05 130.89-34.05 130.89-35 144.69-35 157.79-9.9 157.79-34.05 155.04-34.05 155.04-35 161.89-35 161.89-34.05Z" opacity="1" transform="matrix(1,0,0,1,0,0)" fill="#0080ff" class="wordmark-text-0" data-fill-palette-color="primary" id="text-0"></path></svg></g></svg></g></svg></g></svg></g><g transform="matrix(1,0,0,1,0,0.22161168790798058)"><svg viewBox="0 0 109.89470565109511 88.64467516319553" height="88.64467516319553" width="109.89470565109511"><g><svg xmlns="http://www.w3.org/2000/svg" data-name="Your Icon" viewBox="5.5100000000000025 23.318313820262535 89.27444287286029 72.01169466675847" x="0" y="0" height="88.64467516319553" width="109.89470565109511" class="icon-icon-0" data-fill-palette-color="accent" id="icon-0"><path class="cls-1" d="M81.61 82V77.83A1.1 1.1 0 0 0 80.51 76.73H78L94.47 59.1A1.1 1.1 0 0 0 94.47 57.56L74.09 37.95 78.19 33.52A1.1 1.1 0 0 0 78.13 32L76 30 78.12 27.71A1.1 1.1 0 0 0 78.06 26.16L75.31 23.61A1.06 1.06 0 0 0 74.52 23.32 1.1 1.1 0 0 0 73.76 23.67L71.67 26 70 24.43A1.1 1.1 0 0 0 68.45 24.49L57.34 36.49A16.8 16.8 0 0 0 53 35.91 20.92 20.92 0 0 0 37.72 43 1.1 1.1 0 0 0 37.79 44.55L61.37 66.05A1.1 1.1 0 0 0 62.91 66C68.5 59.87 70.01 51.62 67.34 45.24L72.59 39.57 92.13 58.39 74.94 76.73H70.33A1.1 1.1 0 0 0 69.23 77.83V82C62.35 83.61 57.42 87.95 56.1 94A1.1 1.1 0 0 0 57.17 95.33H93.66A1.1 1.1 0 0 0 94.74 94C93.41 87.94 88.48 83.61 81.61 82M74.61 26L75.79 27 74.42 28.48 73.28 27.42ZM62 63.68L40.09 43.68A18.55 18.55 0 0 1 53 38.11 14.4 14.4 0 0 1 57.32 38.77 13.3 13.3 0 0 1 59.89 39.89C60.26 40.1 60.61 40.33 60.95 40.57L61.07 40.65A12 12 0 0 1 62.07 41.5 13 13 0 0 1 62.99 42.44C63.15 42.63 63.31 42.82 63.46 43.02L63.77 43.42Q64.06 43.82 64.32 44.25L64.43 44.42C64.62 44.75 64.81 45.09 64.98 45.42 67.64 50.88 66.59 58.09 62 63.68M65.21 41.68L65 41.34A15 15 0 0 0 63.64 39.9 15 15 0 0 0 61.84 38.51L61.66 38.39A15 15 0 0 0 59.59 37.28L69.31 26.79 71 28.33 73.75 30.88 75.85 32.83 66.28 43.14 66.21 43A15 15 0 0 0 65.22 41.63ZM71.42 78.98H79.42V81.63A28 28 0 0 0 71.42 81.63V78.93ZM58.62 93.09C60.62 87.21 67.07 83.48 75.42 83.48S90.19 87.21 92.22 93.09z" fill="#010c80" data-fill-palette-color="accent"></path><path class="cls-1" d="M11.45 82.87A5.94 5.94 0 0 0 11.45 94.75H51.21V93.25H11.45A4.44 4.44 0 0 1 11.45 84.37H51.21V82.87z" fill="#010c80" data-fill-palette-color="accent"></path><rect class="cls-1" x="9.92" y="85.33" width="41.28" height="1.5" fill="#010c80" data-fill-palette-color="accent"></rect><rect class="cls-1" x="9.92" y="87.99" width="41.28" height="1.5" fill="#010c80" data-fill-palette-color="accent"></rect><rect class="cls-1" x="9.92" y="90.84" width="41.28" height="1.5" fill="#010c80" data-fill-palette-color="accent"></rect><path class="cls-1" d="M48.32 74.79A6 6 0 0 0 42.38 68.85H12.12V70.35H42.38A4.44 4.44 0 1 1 42.38 79.23H12.12V80.73H42.38A6 6 0 0 0 48.32 74.79" fill="#010c80" data-fill-palette-color="accent"></path><rect class="cls-1" x="12.12" y="76.95" width="31.78" height="1.5" fill="#010c80" data-fill-palette-color="accent"></rect><rect class="cls-1" x="12.12" y="74.11" width="31.78" height="1.5" fill="#010c80" data-fill-palette-color="accent"></rect><rect class="cls-1" x="12.12" y="71.26" width="31.78" height="1.5" fill="#010c80" data-fill-palette-color="accent"></rect></svg></g></svg></g></svg></g><defs></defs></svg><rect width="395.52" height="63.45835246229115" fill="none" stroke="none" visibility="hidden"></rect></g></svg></g></svg>